<?xml version="1.0" standalone="no"?>
<!DOCTYPE svg PUBLIC "-//W3C//DTD SVG 20010904//EN"
 "http://www.w3.org/TR/2001/REC-SVG-20010904/DTD/svg10.dtd">
<svg version="1.0" xmlns="http://www.w3.org/2000/svg"
 width="500.000000pt" height="500.000000pt" viewBox="0 0 500.000000 500.000000"
 preserveAspectRatio="xMidYMid meet">

<g transform="translate(0.000000,500.000000) scale(0.100000,-0.100000)"
fill="#000000" stroke="none">
<path d="M1849 3214 l-124 -156 -3 78 c-2 49 1 80 8 82 5 2 10 17 10 33 l0 29
-110 0 -110 0 0 -30 c0 -16 5 -30 10 -30 6 0 10 -72 10 -196 l0 -196 -89 -112
-89 -111 -94 -17 c-94 -17 -233 -56 -226 -63 2 -2 48 3 103 10 351 49 631 66
1199 72 508 6 806 -3 1155 -33 161 -14 414 -44 486 -58 23 -5 20 -1 -18 18
-26 13 -100 34 -163 47 l-116 24 -212 265 -212 265 -255 -8 c-325 -9 -358 -6
-179 16 80 10 147 20 149 22 1 2 -34 49 -78 104 l-82 101 -423 0 -423 0 -124
-156z m405 -227 l248 -312 -288 -6 c-278 -6 -490 -19 -659 -39 -44 -6 -85 -10
-92 -10 -7 0 109 153 259 340 150 187 274 340 277 339 4 0 118 -140 255 -312z
m1165 -146 c94 -118 169 -216 167 -218 -2 -3 -71 2 -153 11 -81 9 -229 20
-327 26 -99 5 -181 12 -183 14 -2 1 67 91 154 200 86 108 160 193 164 189 4
-5 84 -104 178 -222z"/>
<path d="M1900 2895 l0 -45 45 0 45 0 0 45 0 45 -45 0 -45 0 0 -45z"/>
<path d="M2010 2895 l0 -45 40 0 40 0 0 45 0 45 -40 0 -40 0 0 -45z"/>
<path d="M1900 2785 l0 -45 45 0 45 0 0 45 0 45 -45 0 -45 0 0 -45z"/>
<path d="M2010 2785 l0 -45 40 0 40 0 0 45 0 45 -40 0 -40 0 0 -45z"/>
<path d="M3160 2825 c0 -33 2 -35 35 -35 33 0 35 2 35 35 0 33 -2 35 -35 35
-33 0 -35 -2 -35 -35z"/>
<path d="M3240 2825 c0 -33 2 -35 35 -35 33 0 35 2 35 35 0 33 -2 35 -35 35
-33 0 -35 -2 -35 -35z"/>
<path d="M3160 2735 c0 -33 2 -35 35 -35 33 0 35 2 35 35 0 33 -2 35 -35 35
-33 0 -35 -2 -35 -35z"/>
<path d="M3240 2735 c0 -33 2 -35 35 -35 33 0 35 2 35 35 0 33 -2 35 -35 35
-33 0 -35 -2 -35 -35z"/>
<path d="M2970 2330 c-24 -47 -24 -50 -4 -50 9 0 18 9 21 20 3 11 9 20 13 20
4 0 10 -9 13 -20 4 -17 47 -31 47 -15 0 19 -43 85 -55 85 -8 0 -24 -18 -35
-40z"/>
<path d="M2211 2251 c-46 -46 -51 -183 -9 -236 17 -22 27 -26 62 -23 59 4 78
44 74 151 -3 72 -6 81 -31 103 -34 29 -70 31 -96 5z m73 -54 c3 -12 6 -47 6
-78 0 -61 -17 -96 -44 -86 -13 5 -16 22 -16 90 0 83 10 110 35 101 7 -3 16
-15 19 -27z"/>
<path d="M1700 2240 c0 -15 7 -20 25 -20 l25 0 0 -115 0 -115 30 0 30 0 0 115
0 115 25 0 c18 0 25 5 25 20 0 18 -7 20 -80 20 -73 0 -80 -2 -80 -20z"/>
<path d="M1940 2125 l0 -135 25 0 c24 0 25 3 25 61 0 73 14 75 42 4 24 -63 32
-71 57 -59 19 9 19 10 -3 65 -23 54 -23 56 -5 78 49 60 5 121 -87 121 l-54 0
0 -135z m105 75 c8 -25 -10 -50 -36 -50 -15 0 -19 7 -19 35 0 30 3 35 24 35
16 0 27 -7 31 -20z"/>
<path d="M2565 2128 c31 -132 32 -133 61 -136 l30 -3 28 118 c15 65 30 126 33
136 3 13 -2 17 -20 17 -26 0 -29 -7 -53 -134 -9 -49 -17 -33 -33 62 l-13 72
-32 0 -33 0 32 -132z"/>
<path d="M2790 2125 l0 -135 30 0 30 0 0 135 0 135 -30 0 -30 0 0 -135z"/>
<path d="M2940 2125 l0 -135 70 0 c63 0 70 2 70 19 0 16 -8 20 -42 23 -42 3
-43 4 -46 41 -3 35 -2 37 27 37 26 0 31 4 31 25 0 21 -5 25 -30 25 -27 0 -30
3 -30 29 0 28 3 30 42 33 31 2 44 8 46 21 3 15 -5 17 -67 17 l-71 0 0 -135z"/>
<path d="M3140 2240 c0 -15 7 -20 25 -20 l25 0 0 -115 0 -115 30 0 30 0 0 115
0 115 25 0 c18 0 25 5 25 20 0 18 -7 20 -80 20 -73 0 -80 -2 -80 -20z"/>
<path d="M2230 1935 c0 -20 5 -25 25 -25 20 0 25 5 25 25 0 20 -5 25 -25 25
-20 0 -25 -5 -25 -25z"/>
<path d="M2980 1935 c0 -20 5 -25 25 -25 20 0 25 5 25 25 0 20 -5 25 -25 25
-20 0 -25 -5 -25 -25z"/>
</g>
</svg>
